<!-- Although this file is not linked to directly, it is used to generate the data URI in global.scss.
It's included here in case future changes are needed. -->
<svg width="349" height="349" viewBox="0 0 349 349" fill="none" xmlns="http://www.w3.org/2000/svg">
	<circle cx="174.5" cy="174.5" r="174.5" fill="#F0F6FC" fill-opacity="0.6"/>
	<path d="M171.363 280.845C220.309 280.845 248.756 255.588 248.756 216.018C248.756 165.926 201.902 151.613 168.016 140.669C149.609 135.196 135.386 130.987 135.386 122.147C135.386 107.414 151.283 97.311 175.128 97.311C202.32 97.311 224.492 106.572 242.062 121.305C242.481 118.358 242.481 115.412 242.481 112.465C241.644 84.2616 217.38 68.6865 175.965 68.6865C132.039 68.6865 100.245 95.6272 100.245 136.459C100.245 186.131 148.773 201.706 182.658 212.651C201.065 218.544 215.289 223.175 215.289 231.173C215.289 245.064 197.718 254.325 173.873 254.325C148.354 254.325 124.927 245.485 103.173 228.226V233.698C103.592 265.69 129.111 280.845 171.363 280.845Z" fill="#1D2327"/>
</svg>
