<svg width="10" height="12" viewBox="0 0 10 12" xmlns="http://www.w3.org/2000/svg">
	<path fill-rule="evenodd" clip-rule="evenodd" d="M8.375 4H7.8125V2.85714C7.8125 1.28 6.5525 0 5 0C3.4475 0 2.1875 1.28 2.1875 2.85714V4H1.625C1.00625 4 0.5 4.51429 0.5 5.14286V10.8571C0.5 11.4857 1.00625 12 1.625 12H8.375C8.99375 12 9.5 11.4857 9.5 10.8571V5.14286C9.5 4.51429 8.99375 4 8.375 4ZM3.31253 2.85711C3.31253 1.90854 4.06628 1.14282 5.00003 1.14282C5.93378 1.14282 6.68753 1.90854 6.68753 2.85711V3.99997H3.31253V2.85711ZM1.62497 10.8571H8.37497V5.14282H1.62497V10.8571Z" fill="currentColor"/>
</svg>
