<svg viewBox="0 0 34 34" fill="none" xmlns="http://www.w3.org/2000/svg"><circle cx="17" cy="17" r="17" fill="#26212E"/><path fill-rule="evenodd" clip-rule="evenodd" d="M14.03 21.746c.398-.33.237-.679.797-.807-.025.278.194.56.334.807-.145-.526-.003-.768.106-1.032.463-1.125-.88-1.853-1.796-2.031.313-.236.531-.469.924-.51a2.975 2.975 0 00-1.408.33c-1.48.762-2.652-.75-1.876-2.12.413-.732.884-.744 1.307-1.24.102.255.136.533.1.808a1.41 1.41 0 00.064-.952c-.138-.48-.533-.484-.606-1.176-.016-.145-.14.081-.35-.11-.05-.046-.15-.128-.217-.091-.113.063-.24.011-.309.047-.11.06-.144-.064-.266.024-.214.153-.236-.019-.442.008-.257.033-.425.374-.572.205-.135-.154-.273.109-.371.109-.068 0-.415.454-.568.04-.115-.31-.372.294-.509.09-.043-.066-.163.154-.24-.064-.017-.05.002-.111-.142-.04-.286.143-.185-.085-.276-.205-.11-.148-.15-.148-.09-.387.047-.19-.026-.473.265-.521.075-.012.143-.008.245-.212.128-.257.308-.134.276-.25-.048-.171.19-.402.3-.51.147-.147.34-.36.407-.567a.905.905 0 01.137-.202c.108-.12.14-.004.302-.064.117-.043.026.075.141-.1.037-.056.139-.003.252-.056.344-.161.376-.159.462-.533.016-.07.033-.125.106-.118.145.014.178-.074.268-.072.08.002.109-.043.152-.097.238-.31.369-.079.474-.103.082-.019.03-.204.245-.146.307.082.207-.074.404-.023.232.06.248.272.407.323.19.06.28.284.408.281.448-.007.313.33.596.462-.213-.23.016-.602-.468-.65-.108-.011-.145-.183-.306-.263-.194-.096-.174-.302-.524-.386.09-.06.118.006.173-.106.077-.157.12-.065.15-.162.028-.09.008-.141.22-.222.22-.085.432-.28.628-.27.173.01.245-.114.235-.27-.01-.162-.043-.384.296-.316.204.04.2.004.199-.143-.002-.148.053-.237.231-.23.13.003.259-.004.308-.168.039-.13.276-.163.402-.213.422-.163.48.072.595-.135.094-.168.26-.455.447-.25.038.04.073.07.2-.081.106-.127.359-.287.45-.069.035.086.114.174.182.063.014-.022.03-.046.07-.056.069-.015.106-.034.14-.051.29-.146.416-.136.284.18-.19.452 1.053-.277.707.215-.127.18.715.283.838.365.067.045.064.083.192.11.36.07.355.036.377.347.01.14.143.062.143.241 0 .767.627.381.73.572.017.032.043.06.105.06.198 0 .21-.041.299.127.036.069.066.103.169.138.159.053.149.073.09.198-.072.149.04.146.184.16.132.014.196.09.287.198.147.175.377.224.572.326.111.057.002.2.19.348.138.11.208.094.022.236-.786.6.292.437.593.994.068.125.158.28.287.424.3.329.132.42.294.626.094.118.02.09.174.196.36.251-.14.418-.424.304-.13-.051-.221-.122-.196-.037.02.07-.015.12-.07.173-.166.16.163.098.242.086.24-.037.882-.11.877.133-.006.316.182.387.333.407.246.035.316.082.452.323.122.218.194.101.383.295.13.132.29.369.027.403-.063.008-.131.001-.16.025a.529.529 0 01-.186.095c-.393.129.185.194.327.161.125-.028.279-.07.399-.037.076.02.083.113.325.152.08.014.048.141.008.23-.139.307.255.144.214.376-.024.134.145.35-.09.355-.076.002-.155-.02-.153.049.005.151-.22-.042-.422.166-.075.077-.253.13-.362-.013-.042-.055-.093-.1-.29-.033-.192.065-.322.291-.407-.058-.022-.092-.067-.094-.19-.139-.165-.062-.15-.37-.394-.171a.3.3 0 01-.285.055c-.192-.053-.403.017-.421-.137a.481.481 0 00-.502-.425c-.196.011-.37.048-.473-.196.077.28.275.298.508.298.193 0 .306.108.34.323.06.379.272.14.54.319a.729.729 0 01.28.39c.056.17.493-.033.375.371-.05.174-.142.24-.322.38-.533.422-.666.006-.823.343-.081.174-.084.045-.26.13-.293.14-.48-.184-.695-.066-.242.136-.223-.114-.468.054-.203.139-.41-.106-.507.275-.083.325-.427.332-.584.158-.251-.278-.176.327-.482.078-.163-.132-.283.06-.522.064-.44.006-.65-.404-.864-.154-.255.296-.44-.046-.445-.347-.004-.309-1.034-.206-1.576-.366-.3-.09-1.241.019-.935-.502-.494.56.608.525.908.652.18.075.326.137.501.163.173.424.285.884.302 1.444.058-.308.07-.621.038-.93-.057-.55.322.272.367.39.245.645-.03 1.83-.649 2.186a4.329 4.329 0 00-.748-1.418c.34.56.82 1.707.436 2.363a1.398 1.398 0 01-.731-.691c.101.477.548 1.006 1.087.83.94-.304.937.334 2.184.44.906.16 2.2 0 2.818.054.337.029 1.755.282 1.749.665-.026 1.584-.583 1.668-2.048 1.817a36.17 36.17 0 01-2.425.16 83.155 83.155 0 01-6.477-.003c-.964-.042-1.427-.05-2.45-.195-1.023-.145-1.584-.52-1.568-1.702.007-.435 1.205-.85 1.596-.898.463-.057 1.2.007 1.871-.167.7-.182.994-.302 1.51-.728zm7.113-8.672c-.222-.06-.068-.197-.45-.02-.226.105-.259-.186-.487-.134-.229.051-.322-.18-.663-.238-.423-.073-.118-.191-.788-.046-.13.027-.238-.13-.64-.074-.472.065-.307.12-.592-.165-.362-.36-.649-.119-1.02-.264.286.238.489.027.827.317-.321.197-.696 1.149-1.28 1.209.636.153.943.507 1.527.592.671.096 1.173.168 1.532.76.401.664.585.281 1.163.241.366-.025.375-.265.436-.519.084-.35.168-.367.413-.414.283-.053.216-.132.142-.223-.2-.246.025-.296.194-.35.296-.092.057-.107.057-.238-.37-.128-.085-.31.121-.39.225.149.323.124.422.104.145-.03.242.043.364-.041-.18.02-.217-.052-.37-.03-.068.011-.15.016-.291-.075-.239-.154-.36.068-.617-.002zm-3.033 2.35l-1.452-.781c-1.75-.94-2.547.448-3.109 1.971l-1.018 1.046c.73-.483 1.325-1.022 2.093-1.018.123.001 2.018.695 1.713-.13-.055-.15.118-.076.166-.289.053-.244.072-.202.26-.046.117.098.28.162.23-.07-.022-.103-.052-.195.372-.005.201.09.127-.092.404-.128.386-.05.303-.446.485-.5.1-.032.202.081.392-.111.066-.067.145-.128.31-.083-.191-.104-.293-.02-.39.044-.195.127-.27-.053-.456.1zm-2.967-2.756c.213-.029.426-.051.64-.066a.176.176 0 00.1-.084.17.17 0 00.009-.13.384.384 0 01.195-.296l-.002-.004c-.343.002-.62.142-.971.303-.07.032-.033.159-.157.304a.366.366 0 01-.269.337.177.177 0 00-.12.066.17.17 0 00-.034.132.319.319 0 01-.368.088c-.266-.11-.465-.094-.596.052a.488.488 0 01.53.02.41.41 0 00.519-.118.179.179 0 01.167-.141c.188-.076.307-.231.357-.463z" fill="#fff"/></svg>