<svg viewBox="0 0 300 56" fill="none" xmlns="http://www.w3.org/2000/svg">
<path d="M0 28C0 12.536 12.536 0 28 0H272C287.464 0 300 12.536 300 28V28C300 43.464 287.464 56 272 56H28C12.536 56 0 43.464 0 28V28Z" fill="#716681"/>
<path fill-rule="evenodd" clip-rule="evenodd" d="M35.75 26.9999H37V24.6665L35.875 19.9999H20.125L19 24.6665V26.9999H20.25V35.7499H35.75V26.9999ZM34.25 26.9999H21.75V34.2499H26V28.9999H30V34.2499H34.25V26.9999ZM28.75 21.4999H30.8172L31.3024 24.7397L31.3307 25.4999H28.75V21.4999ZM25.1828 21.4999H27.25V25.4999H24.6693L24.6976 24.7397L25.1828 21.4999ZM32.7982 24.6003L32.3339 21.4999H34.6936L35.5 24.8447V25.4999H32.8318L32.7982 24.6003ZM23.6661 21.4999H21.3064L20.5 24.8447V25.4999H23.1682L23.2018 24.6003L23.6661 21.4999Z" fill="white"/>
<path d="M48 28C48 23.0294 52.0294 19 57 19H272C276.971 19 281 23.0294 281 28V28C281 32.9706 276.971 37 272 37H57C52.0294 37 48 32.9706 48 28V28Z" fill="white"/>
</svg>
