<svg width="16" height="16" viewBox="0 0 16 16" fill="none" xmlns="http://www.w3.org/2000/svg">
	<path fill-rule="evenodd" clip-rule="evenodd" d="M0 8.333c1.258-3.512 4.364-6 8-6s6.742 2.488 8 6c-1.258 3.512-4.364 6-8 6s-6.742-2.488-8-6zm14.415 0c-1.2-2.696-3.658-4.4-6.415-4.4s-5.215 1.704-6.415 4.4c1.2 2.696 3.658 4.4 6.415 4.4s5.215-1.704 6.415-4.4zM8 6.333c1.004 0 1.818.896 1.818 2s-.815 2-1.818 2-1.818-.896-1.818-2 .815-2 1.818-2zm-3.273 2c0-1.984 1.469-3.6 3.273-3.6s3.273 1.616 3.273 3.6-1.469 3.6-3.273 3.6-3.273-1.616-3.273-3.6z" fill="currentColor"/>
</svg>
