<svg viewBox="0 0 349 349" fill="none" xmlns="http://www.w3.org/2000/svg">
	<path d="M174.5 349a174.5 174.5 0 1 0-.001-349.001A174.5 174.5 0 0 0 174.5 349Zm-1.465-68.686c-41.415 0-65.678-15.575-66.515-43.779 0-2.947-.001-5.893.418-8.84 17.569 14.733 39.741 23.994 66.933 23.994 23.845 0 39.742-10.102 39.742-24.835 0-8.84-14.222-13.051-32.629-18.524-33.886-10.944-80.74-25.256-80.74-75.348 0-39.57 28.447-64.828 77.393-64.828 42.252 0 67.77 15.157 68.189 47.149v5.47c-21.754-17.259-45.18-26.097-70.699-26.097-23.845 0-41.416 9.259-41.416 23.15 0 7.998 14.224 12.631 32.631 18.524 33.885 10.945 82.414 26.519 82.414 76.191 0 40.832-31.795 67.773-75.721 67.773Z" fill="#26212E"/>
</svg>
