<svg width="24" height="24" viewBox="0 0 24 24" fill="none" xmlns="http://www.w3.org/2000/svg">
<path fill-rule="evenodd" clip-rule="evenodd" d="M16.5 9.25C16.5 10.4926 15.4926 11.5 14.25 11.5C13.0074 11.5 12 10.4926 12 9.25C12 8.00736 13.0074 7 14.25 7C15.4926 7 16.5 8.00736 16.5 9.25ZM10 13.5C10 14.3284 9.32843 15 8.5 15C7.67157 15 7 14.3284 7 13.5C7 12.6716 7.67157 12 8.5 12C9.32843 12 10 12.6716 10 13.5ZM14.75 16.5C15.1642 16.5 15.5 16.1642 15.5 15.75C15.5 15.3358 15.1642 15 14.75 15C14.3358 15 14 15.3358 14 15.75C14 16.1642 14.3358 16.5 14.75 16.5Z" fill="#00594F"/>
</svg>
