<svg viewBox="0 0 24 24" fill="none" xmlns="http://www.w3.org/2000/svg">
	<path fill-rule="evenodd" clip-rule="evenodd" d="M12 23.4857C18.3434 23.4857 23.4857 18.3434 23.4857 12C23.4857 5.65662 18.3434 0.514286 12 0.514286C5.65662 0.514286 0.514286 5.65662 0.514286 12C0.514286 18.3434 5.65662 23.4857 12 23.4857ZM12 24C18.6274 24 24 18.6274 24 12C24 5.37258 18.6274 0 12 0C5.37258 0 0 5.37258 0 12C0 18.6274 5.37258 24 12 24Z" fill="currentColor"/>
	<path fill-rule="evenodd" clip-rule="evenodd" d="M15.7693 8.86179L10.8601 15.4641L7.85694 13.2311L8.26609 12.6808L10.719 14.5047L15.219 8.45263L15.7693 8.86179Z" fill="currentColor"/>
</svg>
