<svg width="24" height="24" viewBox="0 0 24 24" xmlns="http://www.w3.org/2000/svg">
	<path
		fill-rule="evenodd"
		clip-rule="evenodd"
		d="M11.9287 18.5C15.2424 18.5 17.9287 15.8137 17.9287 12.5C17.9287 9.18629 15.2424 6.5 11.9287 6.5C8.615 6.5 5.92871 9.18629 5.92871 12.5C5.92871 15.8137 8.615 18.5 11.9287 18.5ZM11.9287 15.5C13.5856 15.5 14.9287 14.1569 14.9287 12.5C14.9287 10.8431 13.5856 9.5 11.9287 9.5C10.2719 9.5 8.92871 10.8431 8.92871 12.5C8.92871 14.1569 10.2719 15.5 11.9287 15.5Z"
		fill="currentColor"
	/>
	<path
		fill-rule="evenodd"
		clip-rule="evenodd"
		d="M11.2758 4.5C10.787 4.5 10.3698 4.85341 10.2894 5.3356L9.92871 7.5H13.9287L13.568 5.3356C13.4876 4.85341 13.0704 4.5 12.5816 4.5H11.2758ZM12.5816 20.5C13.0704 20.5 13.4876 20.1466 13.568 19.6644L13.9287 17.5H9.92871L10.2894 19.6644C10.3698 20.1466 10.787 20.5 11.2758 20.5H12.5816Z"
		fill="currentColor"
	/>
	<path
		fill-rule="evenodd"
		clip-rule="evenodd"
		d="M18.53 7.93422C18.2856 7.51088 17.7709 7.32629 17.3132 7.49778L15.2584 8.26758L17.2584 11.7317L18.9524 10.3371C19.3298 10.0264 19.4273 9.48838 19.1829 9.06503L18.53 7.93422ZM5.32647 17.065C5.57089 17.4884 6.08555 17.673 6.54332 17.5015L8.59811 16.7317L6.59811 13.2676L4.90406 14.6622C4.52665 14.9729 4.42918 15.5109 4.6736 15.9342L5.32647 17.065Z"
		fill="currentColor"
	/>
	<path
		fill-rule="evenodd"
		clip-rule="evenodd"
		d="M4.67454 9.06578C4.43012 9.48912 4.52759 10.0271 4.90499 10.3378L6.59905 11.7324L8.59905 8.26832L6.54426 7.49852C6.08649 7.32703 5.57183 7.51162 5.32741 7.93497L4.67454 9.06578ZM19.1838 15.935C19.4282 15.5116 19.3308 14.9736 18.9534 14.6629L17.2593 13.2683L15.2593 16.7324L17.3141 17.5022C17.7719 17.6737 18.2865 17.4891 18.5309 17.0658L19.1838 15.935Z"
		fill="currentColor"
	/>
</svg>
