<svg width="24" height="24" viewBox="0 0 24 24" fill="none" xmlns="http://www.w3.org/2000/svg">
<path fill-rule="evenodd" clip-rule="evenodd" d="M19 4.5H5C4.72386 4.5 4.5 4.72386 4.5 5V14C4.5 14.2761 4.72386 14.5 5 14.5H19C19.2761 14.5 19.5 14.2761 19.5 14V5C19.5 4.72386 19.2761 4.5 19 4.5ZM5 3C3.89543 3 3 3.89543 3 5V14C3 15.1046 3.89543 16 5 16H9.5115L8.48025 18.75H7C6.58579 18.75 6.25 19.0858 6.25 19.5C6.25 19.9142 6.58579 20.25 7 20.25H9H9.51975H15H17C17.4142 20.25 17.75 19.9142 17.75 19.5C17.75 19.0858 17.4142 18.75 17 18.75H15.5198L14.4885 16H19C20.1046 16 21 15.1046 21 14V5C21 3.89543 20.1046 3 19 3H5ZM10 6.5L15 9.5L10 12.5V6.5ZM13.9177 18.75H10.0823L11.0198 16.25H12.9802L13.9177 18.75Z" fill="#1E1E1E"/>
</svg>
