<svg width="24" height="24" viewBox="0 0 24 24" fill="none" xmlns="http://www.w3.org/2000/svg">
<path fill-rule="evenodd" clip-rule="evenodd" d="M15 4H12V5.5H15V4ZM6 18.5H9C9.27614 18.5 9.5 18.2761 9.5 18V11C9.5 10.7239 9.27614 10.5 9 10.5H6C5.72386 10.5 5.5 10.7239 5.5 11V18C5.5 18.2761 5.72386 18.5 6 18.5ZM9 20H6C4.89543 20 4 19.1046 4 18V11C4 9.89543 4.89543 9 6 9H9C10.1046 9 11 9.89543 11 11V18C11 19.1046 10.1046 20 9 20ZM15 18.5H18C18.2761 18.5 18.5 18.2761 18.5 18V11C18.5 10.7239 18.2761 10.5 18 10.5H15C14.7239 10.5 14.5 10.7239 14.5 11V18C14.5 18.2761 14.7239 18.5 15 18.5ZM18 20H15C13.8954 20 13 19.1046 13 18V11C13 9.89543 13.8954 9 15 9H18C19.1046 9 20 9.89543 20 11V18C20 19.1046 19.1046 20 18 20ZM17 4H20V5.5H17V4ZM10 4H4V5.5H10V4Z" fill="#1E1E1E"/>
</svg>
