<svg width="24" height="24" viewBox="0 0 24 24" fill="none" xmlns="http://www.w3.org/2000/svg">
<path fill-rule="evenodd" clip-rule="evenodd" d="M9 9.5H6C5.72386 9.5 5.5 9.27614 5.5 9V6C5.5 5.72386 5.72386 5.5 6 5.5H9C9.27614 5.5 9.5 5.72386 9.5 6V9C9.5 9.27614 9.27614 9.5 9 9.5ZM6 11H9C10.1046 11 11 10.1046 11 9V6C11 4.89543 10.1046 4 9 4H6C4.89543 4 4 4.89543 4 6V9C4 10.1046 4.89543 11 6 11ZM18 9.5H15C14.7239 9.5 14.5 9.27614 14.5 9V6C14.5 5.72386 14.7239 5.5 15 5.5H18C18.2761 5.5 18.5 5.72386 18.5 6V9C18.5 9.27614 18.2761 9.5 18 9.5ZM15 11H18C19.1046 11 20 10.1046 20 9V6C20 4.89543 19.1046 4 18 4H15C13.8954 4 13 4.89543 13 6V9C13 10.1046 13.8954 11 15 11ZM4 14.5H11V16H4V14.5ZM20 14.5H13V16H20V14.5ZM4 18.5H9V20H4V18.5ZM18 18.5H13V20H18V18.5Z" fill="#1E1E1E"/>
</svg>
