<svg viewBox="0 0 24 24" fill="none" xmlns="http://www.w3.org/2000/svg">
	<path fill-rule="evenodd" d="M0 12.5c1.887-5.268 6.546-9 12-9s10.113 3.732 12 9c-1.887 5.268-6.546 9-12 9s-10.113-3.732-12-9zm21.623 0c-1.8-4.044-5.487-6.6-9.622-6.6s-7.822 2.556-9.622 6.6c1.8 4.044 5.487 6.6 9.623 6.6s7.823-2.556 9.622-6.6zM12 9.5c1.506 0 2.727 1.344 2.727 3s-1.223 3-2.727 3-2.727-1.344-2.727-3 1.223-3 2.727-3zm-4.909 3c0-2.976 2.204-5.4 4.91-5.4s4.91 2.424 4.91 5.4-2.204 5.4-4.91 5.4-4.909-2.424-4.909-5.4z" fill="currentColor" />
</svg>
