<svg viewBox="0 0 24 24" fill="none" xmlns="http://www.w3.org/2000/svg">
	<path d="M14.829 6.302C14.091 6.268 13.869 6.262 12 6.262C10.131 6.262 9.91 6.269 9.172 6.302C7.273 6.389 6.389 7.288 6.302 9.172C6.269 9.91 6.261 10.131 6.261 12C6.261 13.869 6.269 14.09 6.302 14.829C6.389 16.708 7.269 17.612 9.172 17.699C9.909 17.732 10.131 17.74 12 17.74C13.87 17.74 14.091 17.733 14.829 17.699C16.728 17.613 17.611 16.711 17.699 14.829C17.732 14.091 17.739 13.869 17.739 12C17.739 10.131 17.732 9.91 17.699 9.172C17.611 7.289 16.726 6.389 14.829 6.302V6.302ZM12 15.595C10.015 15.595 8.405 13.986 8.405 12C8.405 10.015 10.015 8.406 12 8.406C13.985 8.406 15.595 10.015 15.595 12C15.595 13.985 13.985 15.595 12 15.595ZM15.737 9.104C15.273 9.104 14.897 8.728 14.897 8.264C14.897 7.8 15.273 7.424 15.737 7.424C16.201 7.424 16.577 7.8 16.577 8.264C16.577 8.727 16.201 9.104 15.737 9.104V9.104ZM14.333 12C14.333 13.289 13.288 14.333 12 14.333C10.712 14.333 9.667 13.289 9.667 12C9.667 10.711 10.712 9.667 12 9.667C13.288 9.667 14.333 10.711 14.333 12ZM12 0C5.373 0 0 5.373 0 12C0 18.627 5.373 24 12 24C18.627 24 24 18.627 24 12C24 5.373 18.627 0 12 0ZM18.958 14.886C18.843 17.431 17.426 18.841 14.887 18.958C14.14 18.992 13.901 19 12 19C10.099 19 9.861 18.992 9.114 18.958C6.57 18.841 5.159 17.429 5.042 14.886C5.008 14.14 5 13.901 5 12C5 10.099 5.008 9.861 5.042 9.114C5.159 6.57 6.571 5.159 9.114 5.043C9.861 5.008 10.099 5 12 5C13.901 5 14.14 5.008 14.887 5.043C17.432 5.16 18.844 6.575 18.958 9.114C18.992 9.861 19 10.099 19 12C19 13.901 18.992 14.14 18.958 14.886Z" fill="currentColor"/>
</svg>
