<svg viewBox="0 0 24 24" fill="none" xmlns="http://www.w3.org/2000/svg">
	<path fill-rule="evenodd" clip-rule="evenodd" d="M19.125 8H17.9375V5.71428C17.9375 2.56 15.2775 0 12 0C8.7225 0 6.0625 2.56 6.0625 5.71428V8H4.875C3.56875 8 2.5 9.02858 2.5 10.2857V21.7142C2.5 22.9714 3.56875 24 4.875 24H19.125C20.4313 24 21.5 22.9714 21.5 21.7142V10.2857C21.5 9.02858 20.4313 8 19.125 8ZM8.43756 5.71422C8.43756 3.81708 10.0288 2.28564 12.0001 2.28564C13.9713 2.28564 15.5626 3.81708 15.5626 5.71422V7.99994H8.43756V5.71422ZM4.87494 21.7142H19.1249V10.2856H4.87494V21.7142Z" fill="currentColor"/>
</svg>
