<svg width="36" height="36" viewBox="0 0 36 36" fill="none" xmlns="http://www.w3.org/2000/svg">
<circle cx="18" cy="18" r="18" fill="#43AF99"/>
<path fill-rule="evenodd" clip-rule="evenodd" d="M14.8546 23.025C15.277 22.6763 15.106 22.3065 15.6991 22.1705C15.6726 22.4654 15.9049 22.7644 16.0533 23.025C15.8998 22.4677 16.05 22.2122 16.165 21.9327C16.6549 20.7415 15.2329 19.9705 14.2634 19.7821C14.5946 19.5323 14.8258 19.2855 15.2416 19.2428C14.7219 19.235 14.2098 19.3552 13.7507 19.5921C12.1848 20.3982 10.9435 18.7976 11.7644 17.3471C12.2022 16.5716 12.7008 16.559 13.1488 16.0341C13.2563 16.3035 13.293 16.5983 13.2539 16.8896C13.3939 16.5692 13.4168 16.213 13.3222 15.8817C13.1762 15.3723 12.758 15.369 12.6803 14.6362C12.6641 14.4829 12.5319 14.7221 12.31 14.5195C12.257 14.4708 12.1504 14.384 12.0806 14.4233C11.9601 14.4898 11.8262 14.4354 11.7536 14.4735C11.6359 14.5367 11.6 14.4053 11.4712 14.4982C11.2451 14.6608 11.221 14.4787 11.0036 14.5066C10.7314 14.5415 10.5529 14.9028 10.3975 14.7239C10.2551 14.5613 10.1082 14.839 10.0049 14.839C9.93303 14.839 9.56508 15.3196 9.40336 14.8808C9.28203 14.5529 9.00985 15.1934 8.86473 14.9761C8.81867 14.907 8.69221 15.1396 8.61122 14.9097C8.59255 14.8568 8.61303 14.7913 8.46008 14.8679C8.15719 15.0188 8.26468 14.7768 8.16833 14.6497C8.05061 14.4937 8.00876 14.4937 8.07199 14.2406C8.12227 14.0395 8.04549 13.7395 8.3535 13.6884C8.43208 13.6755 8.50464 13.6806 8.61303 13.4636C8.74791 13.1919 8.9391 13.322 8.90477 13.1985C8.85449 13.0178 9.1062 12.7741 9.22302 12.6593C9.37837 12.5042 9.5816 12.2775 9.65386 12.0593C9.66681 12.0217 9.73666 11.9135 9.79808 11.8447C9.91249 11.7178 9.94651 11.8405 10.1181 11.7774C10.2419 11.7314 10.1455 11.8567 10.2675 11.6716C10.3066 11.6126 10.4144 11.6682 10.5345 11.612C10.899 11.4415 10.9329 11.4444 11.0235 11.0482C11.0406 10.9733 11.0584 10.9153 11.1352 10.9228C11.2896 10.9381 11.3246 10.8444 11.4194 10.8462C11.504 10.8486 11.5347 10.8011 11.5799 10.744C11.8325 10.4151 11.9707 10.6604 12.0827 10.6349C12.1688 10.6153 12.1143 10.4184 12.3422 10.4798C12.6674 10.5666 12.5608 10.4022 12.7698 10.456C13.0148 10.5191 13.0317 10.744 13.2 10.7978C13.4023 10.8618 13.4978 11.0986 13.6326 11.0959C14.1072 11.0881 13.9638 11.4443 14.2634 11.585C14.0382 11.3412 14.2806 10.9469 13.7684 10.8958C13.654 10.8846 13.614 10.7031 13.4442 10.618C13.2385 10.5158 13.2599 10.2985 12.8893 10.2089C12.9841 10.1458 13.0139 10.2159 13.072 10.0974C13.1539 9.93031 13.2 10.0277 13.2316 9.9252C13.2605 9.82992 13.2394 9.7761 13.4637 9.69014C13.6968 9.60057 13.9211 9.39437 14.1285 9.40549C14.3119 9.41481 14.389 9.28376 14.3778 9.11844C14.3667 8.94711 14.3317 8.71206 14.6909 8.7845C14.9068 8.82718 14.9026 8.7878 14.9017 8.6321C14.8999 8.4761 14.958 8.38172 15.1468 8.38833C15.285 8.39254 15.4208 8.38503 15.4728 8.21099C15.5138 8.07303 15.7646 8.03816 15.8986 7.98616C16.3451 7.81333 16.4071 8.06191 16.5284 7.84309C16.6275 7.66514 16.8033 7.36096 17.002 7.57737C17.0421 7.62096 17.0788 7.65312 17.2128 7.49201C17.3254 7.35825 17.5934 7.18873 17.6891 7.41957C17.7267 7.51065 17.8104 7.60352 17.8827 7.486C17.8971 7.46285 17.9152 7.4373 17.9577 7.42708C18.0293 7.41085 18.0685 7.39041 18.1046 7.37268C18.412 7.21848 18.546 7.2287 18.4051 7.56265C18.2039 8.0421 19.5205 7.27042 19.1545 7.79109C19.0196 7.98195 19.9114 8.09016 20.0411 8.17703C20.1128 8.22482 20.1095 8.2657 20.2444 8.29305C20.6267 8.36789 20.6207 8.33213 20.6439 8.66126C20.6541 8.81035 20.7959 8.72679 20.7959 8.91675C20.7959 9.72831 21.4598 9.31977 21.5682 9.52181C21.586 9.55578 21.6134 9.58584 21.6799 9.58584C21.8892 9.58584 21.9009 9.54165 21.9957 9.7205C22.0343 9.79294 22.0656 9.82961 22.1749 9.86628C22.3429 9.92249 22.3327 9.94292 22.2697 10.0758C22.1939 10.2333 22.3125 10.2309 22.4651 10.2453C22.6051 10.2597 22.6726 10.3406 22.7689 10.4548C22.9252 10.6397 23.1685 10.6926 23.375 10.7999C23.4927 10.8603 23.3768 11.0112 23.5755 11.1687C23.7224 11.2847 23.7965 11.2685 23.5993 11.4185C22.7668 12.0534 23.9084 11.8809 24.2274 12.4714C24.299 12.6033 24.3939 12.7678 24.5311 12.9196C24.8485 13.2679 24.6711 13.3644 24.8428 13.5823C24.9418 13.7077 24.8641 13.6776 25.0261 13.7903C25.4085 14.056 24.8777 14.2325 24.5772 14.1122C24.4399 14.0578 24.3433 13.9827 24.3698 14.0732C24.3911 14.1474 24.3544 14.1994 24.2963 14.2556C24.1205 14.426 24.4688 14.3596 24.5516 14.3467C24.806 14.3082 25.4862 14.231 25.4811 14.4883C25.4741 14.8222 25.6731 14.8974 25.8336 14.9193C26.0941 14.956 26.1681 15.0053 26.3114 15.2611C26.4412 15.4919 26.5171 15.3684 26.7176 15.5728C26.8549 15.7134 27.0241 15.9638 26.7459 16.0005C26.6794 16.0089 26.6068 16.0014 26.5761 16.026C26.4933 16.09 26.4328 16.1096 26.3798 16.1264C25.9634 16.2635 26.5761 16.3326 26.7263 16.2977C26.8579 16.268 27.0208 16.2229 27.1478 16.2578C27.2288 16.28 27.2367 16.378 27.4926 16.4198C27.5778 16.4342 27.5429 16.5689 27.501 16.6627C27.3541 16.9873 27.7708 16.815 27.7271 17.0606C27.7024 17.2028 27.8807 17.4321 27.6317 17.4372C27.5516 17.439 27.4679 17.415 27.4703 17.4883C27.4754 17.6485 27.2373 17.4442 27.0238 17.6639C26.9443 17.7456 26.7558 17.8027 26.6396 17.6504C26.5954 17.5923 26.5415 17.5454 26.334 17.6155C26.1302 17.6846 25.9917 17.9239 25.9023 17.5542C25.8785 17.4571 25.8315 17.4553 25.7017 17.4075C25.5259 17.342 25.5413 17.0155 25.2835 17.2259C25.1974 17.2951 25.0993 17.3161 24.9816 17.2839C24.7792 17.2286 24.5549 17.302 24.536 17.1391C24.5053 16.8673 24.2662 16.6756 24.0043 16.6891C23.7968 16.7011 23.6135 16.7402 23.5042 16.482C23.5852 16.7778 23.7953 16.7973 24.0419 16.7973C24.2457 16.7973 24.3662 16.9115 24.402 17.1391C24.4652 17.5403 24.6895 17.2882 24.9737 17.4766C25.1137 17.5686 25.2143 17.7177 25.2706 17.8908C25.3287 18.0697 25.7921 17.855 25.6674 18.2828C25.6144 18.4667 25.5163 18.5368 25.326 18.6859C24.7613 19.1313 24.6213 18.6915 24.4547 19.0477C24.3686 19.2326 24.3659 19.0955 24.1789 19.1857C23.8691 19.3339 23.671 18.9906 23.4439 19.1166C23.1871 19.2596 23.2076 18.9948 22.9481 19.1728C22.7331 19.3201 22.5145 19.0613 22.4112 19.464C22.3233 19.8082 21.959 19.816 21.7925 19.6312C21.527 19.3372 21.6065 19.978 21.2822 19.7138C21.1097 19.575 20.9826 19.7778 20.73 19.7821C20.2648 19.789 20.042 19.3543 19.815 19.6185C19.5444 19.932 19.348 19.5707 19.3438 19.2512C19.3396 18.9248 18.2488 19.0339 17.6752 18.8635C17.3579 18.7697 16.361 18.8839 16.6853 18.3327C16.162 18.9248 17.3287 18.8881 17.6463 19.0228C17.8375 19.1027 17.992 19.1677 18.1771 19.1956C18.3605 19.6447 18.4791 20.131 18.4972 20.7241C18.5577 20.3985 18.5716 20.0664 18.5372 19.7391C18.4764 19.1577 18.8774 20.0279 18.9256 20.1524C19.1848 20.8357 18.8946 22.0902 18.2386 22.4668C18.0706 21.9234 17.8026 21.4136 17.4458 20.9654C17.8068 21.5594 18.3147 22.7734 17.9077 23.4677C17.569 23.3289 17.2923 23.0683 17.1336 22.7358C17.2411 23.2411 17.7141 23.8008 18.2849 23.6159C19.2808 23.2928 19.2765 23.969 20.597 24.0814C21.5568 24.2501 22.9264 24.0814 23.5808 24.1376C23.9377 24.1683 25.4392 24.4365 25.4326 24.842C25.4061 26.5195 24.8157 26.6082 23.2648 26.7666C22.3637 26.8586 21.6667 26.8958 20.6969 26.9346C18.5282 27.0215 15.9193 27.0233 13.8386 26.9322C12.8186 26.8876 12.3278 26.8793 11.2448 26.726C10.1618 26.5727 9.56775 26.1747 9.58491 24.924C9.59217 24.4628 10.8606 24.0228 11.2746 23.9724C11.7644 23.9128 12.5452 23.9802 13.2557 23.7963C13.9972 23.6036 14.3076 23.4766 14.8546 23.025ZM22.3869 13.8435C22.1514 13.7795 22.3152 13.634 21.9096 13.8222C21.6706 13.9331 21.6366 13.6253 21.3951 13.68C21.1527 13.7344 21.0537 13.49 20.6927 13.4278C20.2447 13.3503 20.568 13.2258 19.8581 13.3791C19.7214 13.408 19.6064 13.2421 19.1803 13.3007C18.6812 13.3698 18.8561 13.4275 18.5538 13.126C18.1705 12.7443 17.8667 13.0007 17.4732 12.8465C17.777 13.0987 17.9914 12.8748 18.3497 13.1823C18.0091 13.3909 17.6123 14.399 16.9936 14.4621C17.6671 14.6247 17.9929 14.999 18.611 15.0891C19.3219 15.1913 19.8536 15.2671 20.2335 15.8944C20.6577 16.5965 20.8522 16.1916 21.4649 16.1493C21.8524 16.1228 21.8618 15.8688 21.9259 15.5998C22.0147 15.2283 22.1041 15.2112 22.3637 15.1619C22.6632 15.1048 22.5925 15.0212 22.5139 14.925C22.3022 14.6644 22.5404 14.6115 22.7195 14.5553C23.0327 14.4573 22.7792 14.4411 22.7792 14.3022C22.3875 14.1667 22.6894 13.9743 22.908 13.8889C23.1462 14.0473 23.2494 14.0209 23.3545 13.9998C23.5081 13.9674 23.6104 14.0449 23.7402 13.9562C23.549 13.9785 23.5099 13.9009 23.3485 13.9256C23.2759 13.9367 23.1898 13.9418 23.0396 13.8453C22.787 13.6818 22.659 13.9169 22.3869 13.8435ZM19.1752 16.3308L17.6382 15.5042C15.7854 14.5081 14.9414 15.9788 14.3465 17.5917L13.2677 18.6994C14.0409 18.1872 14.6717 17.6164 15.4849 17.6215C15.6149 17.6221 17.6206 18.3571 17.2977 17.4826C17.2396 17.3251 17.4232 17.4033 17.4735 17.1775C17.5298 16.9193 17.5503 16.9635 17.7484 17.1282C17.8731 17.2322 18.0453 17.2996 17.9926 17.0549C17.9694 16.9458 17.9372 16.8478 18.387 17.0489C18.5996 17.1436 18.521 16.9518 18.8145 16.9133C19.2225 16.8604 19.1355 16.442 19.3276 16.3834C19.4342 16.35 19.5416 16.4703 19.7425 16.2668C19.8123 16.1962 19.8969 16.1312 20.0703 16.179C19.8689 16.069 19.7605 16.1586 19.6582 16.225C19.4519 16.3597 19.3715 16.1697 19.1752 16.3308ZM16.0338 13.4134C16.259 13.3827 16.4845 13.359 16.7124 13.3437C16.7566 13.3283 16.7943 13.2968 16.8166 13.2541C16.8379 13.2123 16.8413 13.163 16.8268 13.1176C16.8404 12.9857 16.9171 12.8679 17.0333 12.8032L17.0315 12.799C16.6678 12.8008 16.3743 12.9499 16.003 13.1194C15.9287 13.1534 15.9681 13.2881 15.8365 13.4423C15.8287 13.61 15.7146 13.7543 15.5523 13.7984C15.503 13.8036 15.4569 13.8291 15.4259 13.8682C15.3943 13.9082 15.3816 13.9583 15.3891 14.0079C15.2937 14.1213 15.1356 14.1597 14.9992 14.1017C14.7177 13.9842 14.5076 14.0019 14.3685 14.1561C14.5434 14.0521 14.7629 14.0608 14.9291 14.1775C15.1176 14.2773 15.3515 14.2244 15.4789 14.053C15.4966 13.9686 15.5692 13.9073 15.6556 13.903C15.8552 13.8225 15.9808 13.6587 16.0338 13.4134Z" fill="white"/>
</svg>
