<svg viewBox="0 0 24 24" fill="none" xmlns="http://www.w3.org/2000/svg">
	<circle cx="12" cy="12" r="12" fill="#43AF99"/>
	<path fill-rule="evenodd" clip-rule="evenodd" d="M9.8353 15.3799C10.1351 15.1501 10.0137 14.9063 10.4347 14.8167C10.4159 15.0111 10.5808 15.2082 10.6861 15.3799C10.5772 15.0126 10.6838 14.8442 10.7654 14.66C11.1131 13.8748 10.1038 13.3667 9.41563 13.2424C9.65071 13.0778 9.81484 12.9152 10.11 12.887C9.74111 12.8819 9.37759 12.9611 9.05168 13.1172C7.94019 13.6485 7.05912 12.5936 7.64182 11.6375C7.95256 11.1264 8.30646 11.1181 8.62447 10.7721C8.70076 10.9497 8.72683 11.144 8.69905 11.336C8.79843 11.1248 8.81467 10.89 8.74756 10.6717C8.64391 10.3359 8.34707 10.3337 8.29193 9.85071C8.28039 9.74967 8.18657 9.90737 8.02906 9.77384C7.99145 9.74174 7.9158 9.68449 7.86622 9.71044C7.78073 9.75423 7.68563 9.71837 7.63413 9.74353C7.55056 9.78513 7.52513 9.69855 7.43366 9.75977C7.27317 9.86695 7.25607 9.74689 7.10177 9.76532C6.90857 9.7883 6.78184 10.0264 6.67157 9.90856C6.57048 9.80138 6.46619 9.98444 6.39289 9.98444C6.34185 9.98444 6.08068 10.3012 5.96589 10.012C5.87976 9.79583 5.68657 10.218 5.58356 10.0748C5.55086 10.0292 5.4611 10.1826 5.40361 10.031C5.39036 9.99612 5.4049 9.95293 5.29633 10.0035C5.08134 10.1029 5.15763 9.94343 5.08924 9.85962C5.00568 9.7568 4.97598 9.7568 5.02086 9.58999C5.05655 9.45745 5.00205 9.25973 5.22068 9.22605C5.27646 9.21753 5.32796 9.2209 5.4049 9.07786C5.50064 8.89876 5.63635 8.98455 5.61198 8.90312C5.57629 8.78405 5.75496 8.62338 5.83788 8.5477C5.94815 8.44547 6.09241 8.29609 6.1437 8.15226C6.15289 8.1275 6.20247 8.05617 6.24607 8.01081C6.32728 7.9272 6.35143 8.00803 6.47324 7.96643C6.56108 7.93612 6.49269 8.01873 6.57924 7.89669C6.60703 7.85786 6.68353 7.89451 6.76881 7.85746C7.02751 7.74507 7.05159 7.74694 7.11587 7.4858C7.12806 7.43647 7.14066 7.39823 7.19516 7.40319C7.3048 7.41329 7.32959 7.35148 7.39691 7.35267C7.45696 7.35425 7.47876 7.32295 7.51081 7.28531C7.69012 7.06857 7.78821 7.23023 7.86771 7.21339C7.92883 7.20051 7.89015 7.07075 8.05193 7.11116C8.28274 7.16842 8.20709 7.06005 8.35541 7.09551C8.52937 7.13712 8.54134 7.28531 8.6608 7.32077C8.80442 7.36297 8.87216 7.51908 8.96791 7.5173C9.30472 7.51215 9.20298 7.74692 9.41563 7.83963C9.25577 7.67896 9.42781 7.41904 9.06428 7.38536C8.98307 7.37803 8.95465 7.25837 8.83412 7.2023C8.68815 7.13494 8.70333 6.9917 8.44025 6.93267C8.50757 6.89106 8.52872 6.93722 8.56997 6.85916C8.6281 6.74901 8.6608 6.8132 8.68324 6.74564C8.70375 6.68284 8.68879 6.64737 8.84801 6.59071C9.01342 6.53167 9.17264 6.39577 9.31988 6.4031C9.45003 6.40924 9.50475 6.32286 9.49684 6.2139C9.48893 6.10097 9.46414 5.94604 9.7191 5.99379C9.87233 6.02192 9.86934 5.99597 9.8687 5.89334C9.86741 5.79052 9.90866 5.72831 10.0427 5.73267C10.1408 5.73545 10.2371 5.73049 10.2741 5.61578C10.3032 5.52485 10.4812 5.50187 10.5763 5.46759C10.8932 5.35368 10.9373 5.51752 11.0234 5.37329C11.0937 5.25601 11.2185 5.05551 11.3596 5.19816C11.388 5.22688 11.414 5.24808 11.5091 5.14189C11.5891 5.05373 11.7793 4.94199 11.8472 5.09415C11.874 5.15418 11.9334 5.21539 11.9847 5.13793C11.9949 5.12267 12.0077 5.10583 12.0379 5.0991C12.0887 5.0884 12.1165 5.07493 12.1422 5.06324C12.3604 4.96161 12.4555 4.96834 12.3554 5.18845C12.2127 5.50447 13.1472 4.99584 12.8874 5.33902C12.7916 5.46482 13.4246 5.53614 13.5168 5.5934C13.5676 5.6249 13.5653 5.65184 13.661 5.66987C13.9324 5.7192 13.9282 5.69563 13.9446 5.91256C13.9519 6.01083 14.0525 5.95575 14.0525 6.08096C14.0525 6.61587 14.5237 6.3466 14.6007 6.47977C14.6133 6.50215 14.6328 6.52197 14.68 6.52197C14.8285 6.52197 14.8369 6.49284 14.9042 6.61072C14.9315 6.65847 14.9538 6.68264 15.0313 6.70681C15.1506 6.74386 15.1433 6.75733 15.0987 6.84489C15.0448 6.94871 15.129 6.94712 15.2374 6.95663C15.3367 6.96614 15.3846 7.01943 15.453 7.09472C15.5639 7.21656 15.7366 7.25143 15.8832 7.32216C15.9667 7.36198 15.8845 7.46143 16.0255 7.56524C16.1298 7.64172 16.1824 7.63102 16.0424 7.72988C15.4515 8.1484 16.2618 8.03466 16.4882 8.42388C16.5391 8.51085 16.6064 8.61922 16.7038 8.71927C16.9291 8.94888 16.8032 9.01248 16.925 9.15611C16.9953 9.23873 16.9402 9.21892 17.0552 9.29321C17.3266 9.46834 16.9498 9.58464 16.7365 9.50539C16.6391 9.46953 16.5705 9.42 16.5893 9.47964C16.6045 9.52857 16.5784 9.56285 16.5371 9.59989C16.4123 9.71222 16.6596 9.66844 16.7184 9.65992C16.899 9.63456 17.3817 9.58365 17.3781 9.75323C17.3732 9.97334 17.5144 10.0229 17.6284 10.0373C17.8132 10.0615 17.8658 10.094 17.9675 10.2626C18.0596 10.4147 18.1135 10.3333 18.2558 10.468C18.3533 10.5608 18.4734 10.7258 18.2759 10.75C18.2287 10.7555 18.1772 10.7505 18.1554 10.7668C18.0966 10.809 18.0536 10.8219 18.016 10.833C17.7205 10.9233 18.1554 10.9689 18.262 10.9459C18.3554 10.9263 18.471 10.8966 18.5612 10.9195C18.6187 10.9342 18.6243 10.9988 18.8059 11.0263C18.8664 11.0358 18.8416 11.1246 18.8119 11.1864C18.7076 11.4004 19.0034 11.2868 18.9724 11.4487C18.9549 11.5424 19.0814 11.6936 18.9046 11.6969C18.8478 11.6981 18.7884 11.6823 18.7901 11.7306C18.7937 11.8362 18.6247 11.7015 18.4732 11.8463C18.4167 11.9002 18.283 11.9379 18.2005 11.8374C18.169 11.7992 18.1308 11.7683 17.9835 11.8144C17.8389 11.86 17.7406 12.0177 17.6771 11.774C17.6602 11.71 17.6269 11.7088 17.5348 11.6773C17.4099 11.6341 17.4208 11.419 17.2379 11.5577C17.1768 11.6032 17.1071 11.6171 17.0236 11.5959C16.8799 11.5595 16.7207 11.6078 16.7073 11.5004C16.6855 11.3213 16.5158 11.1949 16.3298 11.2038C16.1826 11.2118 16.0524 11.2375 15.9749 11.0673C16.0324 11.2623 16.1815 11.2752 16.3566 11.2752C16.5012 11.2752 16.5867 11.3504 16.6122 11.5004C16.657 11.7649 16.8163 11.5987 17.018 11.7229C17.1174 11.7835 17.1888 11.8818 17.2287 11.9959C17.27 12.1138 17.5989 11.9723 17.5104 12.2542C17.4728 12.3755 17.4031 12.4217 17.2681 12.5199C16.8672 12.8136 16.7679 12.5236 16.6496 12.7585C16.5884 12.8803 16.5865 12.79 16.4538 12.8494C16.2339 12.9471 16.0933 12.7208 15.9321 12.8038C15.7498 12.8981 15.7644 12.7236 15.5801 12.8409C15.4276 12.9379 15.2724 12.7674 15.1991 13.0328C15.1367 13.2597 14.8781 13.2648 14.7599 13.143C14.5714 12.9492 14.6278 13.3716 14.3977 13.1975C14.2752 13.1059 14.185 13.2397 14.0057 13.2424C13.6755 13.247 13.5174 12.9605 13.3563 13.1347C13.1641 13.3413 13.0248 13.1032 13.0218 12.8926C13.0188 12.6774 12.2445 12.7493 11.8374 12.637C11.6122 12.5752 10.9046 12.6505 11.1347 12.2871C10.7633 12.6774 11.5914 12.6533 11.8169 12.742C11.9526 12.7947 12.0622 12.8375 12.1937 12.8559C12.3238 13.1519 12.408 13.4725 12.4208 13.8633C12.4638 13.6488 12.4736 13.4299 12.4493 13.2141C12.4061 12.8309 12.6907 13.4045 12.725 13.4865C12.9089 13.9369 12.703 14.7638 12.2373 15.012C12.118 14.6538 11.9278 14.3178 11.6746 14.0224C11.9308 14.4139 12.2913 15.2141 12.0024 15.6717C11.762 15.5802 11.5656 15.4084 11.4529 15.1893C11.5292 15.5224 11.865 15.8913 12.2702 15.7694C12.977 15.5565 12.974 16.0022 13.9113 16.0762C14.5926 16.1874 15.5648 16.0762 16.0293 16.1133C16.2826 16.1335 17.3484 16.3103 17.3437 16.5775C17.3249 17.6832 16.9058 17.7417 15.805 17.8461C15.1653 17.9067 14.6706 17.9312 13.9822 17.9568C12.4429 18.0141 10.591 18.0153 9.11408 17.9552C8.39009 17.9258 8.04167 17.9204 7.27295 17.8193C6.50423 17.7183 6.08258 17.456 6.09476 16.6316C6.09991 16.3276 7.00023 16.0376 7.29411 16.0044C7.64182 15.9651 8.19599 16.0095 8.70033 15.8883C9.22671 15.7613 9.447 15.6776 9.8353 15.3799ZM15.1818 9.32828C15.0147 9.28608 15.1309 9.19019 14.8431 9.31421C14.6734 9.38731 14.6492 9.18444 14.4778 9.2205C14.3058 9.25636 14.2355 9.09529 13.9792 9.05428C13.6612 9.00317 13.8908 8.92115 13.3868 9.02219C13.2898 9.04121 13.2082 8.93185 12.9058 8.97048C12.5514 9.01605 12.6756 9.05408 12.461 8.85537C12.189 8.60377 11.9733 8.77276 11.694 8.67113C11.9096 8.83735 12.0618 8.68975 12.3161 8.89242C12.0744 9.02991 11.7927 9.69439 11.3536 9.736C11.8316 9.84318 12.0629 10.0898 12.5016 10.1493C13.0062 10.2166 13.3836 10.2666 13.6533 10.68C13.9544 11.1428 14.0925 10.876 14.5274 10.848C14.8024 10.8306 14.8091 10.6632 14.8546 10.4859C14.9176 10.241 14.9811 10.2297 15.1653 10.1972C15.378 10.1596 15.3278 10.1045 15.272 10.0411C15.1217 9.86933 15.2908 9.83446 15.4179 9.79741C15.6402 9.73283 15.4603 9.72213 15.4603 9.6306C15.1822 9.54125 15.3966 9.41446 15.5517 9.35819C15.7208 9.4626 15.7941 9.44516 15.8687 9.4313C15.9776 9.4099 16.0503 9.46101 16.1424 9.40257C16.0067 9.41723 15.9789 9.36612 15.8644 9.38236C15.8129 9.38969 15.7518 9.39306 15.6451 9.32946C15.4658 9.22169 15.375 9.37662 15.1818 9.32828ZM12.9021 10.9677L11.8111 10.4229C10.4959 9.76631 9.89691 10.7357 9.47461 11.7988L8.70888 12.5288C9.25769 12.1912 9.70542 11.815 10.2827 11.8184C10.3749 11.8188 11.7986 12.3033 11.5694 11.7269C11.5282 11.6231 11.6585 11.6746 11.6942 11.5258C11.7342 11.3556 11.7487 11.3847 11.8893 11.4933C11.9778 11.5618 12.1001 11.6062 12.0627 11.4449C12.0462 11.373 12.0233 11.3084 12.3426 11.441C12.4935 11.5034 12.4377 11.377 12.6461 11.3516C12.9357 11.3168 12.8739 11.041 13.0103 11.0024C13.0859 10.9804 13.1622 11.0596 13.3048 10.9255C13.3543 10.8789 13.4144 10.8361 13.5375 10.8676C13.3945 10.7951 13.3176 10.8542 13.2449 10.8979C13.0985 10.9867 13.0415 10.8615 12.9021 10.9677ZM10.6723 9.04477C10.8321 9.02456 10.9922 9.00891 11.154 8.99881C11.1854 8.98871 11.2121 8.9679 11.2279 8.93977C11.2431 8.91223 11.2454 8.87974 11.2352 8.84983C11.2448 8.76285 11.2993 8.68519 11.3818 8.6426L11.3805 8.63982C11.1223 8.64101 10.914 8.73928 10.6505 8.85102C10.5977 8.8734 10.6257 8.96216 10.5323 9.06379C10.5267 9.17434 10.4457 9.26944 10.3305 9.29856C10.2955 9.30193 10.2628 9.31877 10.2408 9.34452C10.2183 9.37087 10.2094 9.40396 10.2147 9.43665C10.1469 9.51134 10.0348 9.53669 9.93794 9.49846C9.73812 9.42099 9.58895 9.43268 9.49021 9.53432C9.61438 9.46577 9.77018 9.47151 9.88814 9.54838C10.0219 9.61416 10.188 9.57929 10.2784 9.46636C10.291 9.41069 10.3425 9.37028 10.4038 9.3675C10.5455 9.31441 10.6346 9.20643 10.6723 9.04477Z" fill="white"/>
</svg>
