<svg viewBox="0 0 20 20" fill="none" xmlns="http://www.w3.org/2000/svg">
	<path d="M5.9703 10.9158C6.33871 10.9158 6.59133 10.8316 6.72817 10.6737C6.86647 10.517 6.94151 10.3144 6.93869 10.1053V5.29492L8.72813 10.0422C8.80596 10.2625 8.94026 10.4585 9.11759 10.6106C9.28601 10.7474 9.53863 10.8211 9.87547 10.8211C10.0914 10.8235 10.3047 10.7729 10.4965 10.6737C10.6968 10.5586 10.8441 10.3697 10.907 10.1474L12.8122 4.8844V10.0632C12.799 10.2979 12.8784 10.5285 13.0333 10.7053C13.1807 10.8527 13.4228 10.9369 13.7596 10.9369C14.128 10.9369 14.3806 10.8527 14.5175 10.6948C14.6558 10.538 14.7308 10.3354 14.728 10.1264V2.45288C14.7351 2.31693 14.7068 2.18147 14.6459 2.0597C14.5851 1.93794 14.4936 1.83405 14.3806 1.75816C14.1596 1.61079 13.8543 1.53711 13.4754 1.53711C13.1331 1.52273 12.7927 1.59515 12.4859 1.74763C12.2231 1.90994 12.0313 2.16563 11.9491 2.46341L9.886 8.60011L7.72815 2.4213C7.6431 2.15922 7.47729 1.93077 7.25448 1.76868C7.03343 1.61079 6.72817 1.53711 6.32818 1.53711C6.00133 1.52112 5.67659 1.59774 5.39136 1.75816C5.14926 1.91605 5.02295 2.16868 5.02295 2.51604V10.0422C5.02295 10.3369 5.09663 10.5474 5.23347 10.6948C5.39136 10.8422 5.62294 10.9158 5.9703 10.9158Z" fill="#FF5301"/>
	<path d="M17.6848 13.8105L17.4321 13.6105C17.2891 13.5002 17.1122 13.4431 16.9318 13.4489C16.7513 13.4546 16.5784 13.5229 16.4427 13.6421C16.0738 13.9517 15.6085 14.123 15.1269 14.1263H12.8744C12.3601 14.1257 11.8508 14.2268 11.3757 14.4237C10.9006 14.6206 10.4691 14.9094 10.106 15.2736L9.99021 15.3999L9.87442 15.2841C9.13995 14.5502 8.14436 14.1376 7.10606 14.1368H4.84296C4.3649 14.1316 3.90352 13.9604 3.53772 13.6526C3.40317 13.5312 3.22993 13.4614 3.04878 13.4556C2.86763 13.4498 2.6903 13.5084 2.54827 13.621L2.29565 13.821C2.2079 13.8908 2.13618 13.9785 2.08533 14.0784C2.03448 14.1783 2.00569 14.288 2.00092 14.3999C1.99535 14.5125 2.01517 14.6249 2.0589 14.7287C2.10262 14.8326 2.16915 14.9253 2.25354 14.9999C2.96603 15.6376 3.88682 15.9932 4.84296 15.9999H7.11659C7.56846 15.9997 8.0079 16.1479 8.36734 16.4217C8.72677 16.6956 8.9863 17.0799 9.10602 17.5157V17.5367C9.11654 17.6104 9.23233 17.9999 10.0007 17.9999C10.7691 17.9999 10.8849 17.6104 10.8954 17.5367V17.5157C11.0152 17.0799 11.2747 16.6956 11.6341 16.4217C11.9936 16.1479 12.433 15.9997 12.8849 15.9999H15.1585C16.1147 15.9932 17.0354 15.6376 17.7479 14.9999C17.8307 14.924 17.8961 14.8311 17.9397 14.7275C17.9833 14.624 18.0041 14.5122 18.0005 14.3999C17.9918 14.2851 17.9592 14.1734 17.9049 14.0719C17.8505 13.9704 17.7755 13.8814 17.6848 13.8105Z" fill="#FF5301"/>
</svg>
