<svg viewBox="0 0 24 6" fill="none" xmlns="http://www.w3.org/2000/svg">
	<path d="M1.31057 6C2.21255 6 2.73678 5.5102 2.73678 4.74286C2.73678 3.77143 1.87334 3.49388 1.2489 3.28163C0.90969 3.17551 0.647576 3.09388 0.647576 2.92245C0.647576 2.63673 0.940527 2.44082 1.37995 2.44082C1.88105 2.44082 2.28964 2.62041 2.61343 2.90612C2.62114 2.84898 2.62114 2.79184 2.62114 2.73469C2.60572 2.18776 2.15859 1.88571 1.39537 1.88571C0.585902 1.88571 0 2.40816 0 3.2C0 4.16326 0.894272 4.46531 1.51872 4.67755C1.85793 4.79184 2.12004 4.88163 2.12004 5.03673C2.12004 5.30612 1.79625 5.48571 1.35683 5.48571C0.886562 5.48571 0.454845 5.31429 0.0539647 4.97959V5.08571C0.0616739 5.70612 0.531937 6 1.31057 6Z" fill="currentColor"/>
	<path d="M6.01146 6C6.44318 6 6.72071 5.91837 6.94428 5.77143C7.13701 5.64082 7.26806 5.43673 7.32203 5.2C7.0445 5.33878 6.76696 5.39592 6.41234 5.39592C5.57203 5.39592 5.0478 4.86531 5.0478 3.93469V3.74694H7.42996C7.43767 3.68163 7.43767 3.60816 7.43767 3.54286C7.43767 2.53878 6.84406 1.88571 5.88811 1.88571C4.81653 1.88571 4.02248 2.78367 4.02248 4.01633C4.02248 5.29796 4.80111 6 6.01146 6ZM5.06322 3.49388C5.09406 2.97143 5.34846 2.38367 5.83415 2.38367C6.32754 2.38367 6.45859 2.8898 6.4663 3.39592L5.06322 3.49388Z" fill="currentColor"/>
	<path d="M10.6934 5.93469H12.5668C12.1967 5.76327 12.1042 5.61633 12.1042 5.2898V3.10204C12.1042 2.35918 11.7111 1.88571 11.0249 1.88571C10.4005 1.88571 9.9996 2.19592 9.82229 2.94694V1.78776L8.52714 2.22857C8.64278 2.48163 8.75842 2.72653 8.88176 2.97143V5.24898C8.88176 5.57551 8.75842 5.76327 8.41921 5.93469H10.2848C9.9148 5.76327 9.82229 5.57551 9.82229 5.24898V2.97143C10.015 2.73469 10.2309 2.62041 10.5238 2.62041C10.9093 2.62041 11.156 2.84898 11.156 3.30612V5.2898C11.156 5.61633 11.0326 5.76327 10.6934 5.93469Z" fill="currentColor"/>
	<path d="M15.0026 6C15.9046 6 16.4288 5.5102 16.4288 4.74286C16.4288 3.77143 15.5654 3.49388 14.9409 3.28163C14.6017 3.17551 14.3396 3.09388 14.3396 2.92245C14.3396 2.63673 14.6326 2.44082 15.072 2.44082C15.5731 2.44082 15.9817 2.62041 16.3055 2.90612C16.3132 2.84898 16.3132 2.79184 16.3132 2.73469C16.2977 2.18776 15.8506 1.88571 15.0874 1.88571C14.2779 1.88571 13.692 2.40816 13.692 3.2C13.692 4.16326 14.5863 4.46531 15.2107 4.67755C15.55 4.79184 15.8121 4.88163 15.8121 5.03673C15.8121 5.30612 15.4883 5.48571 15.0489 5.48571C14.5786 5.48571 14.1469 5.31429 13.746 4.97959V5.08571C13.7537 5.70612 14.224 6 15.0026 6Z" fill="currentColor"/>
	<path d="M19.7035 6C20.1352 6 20.4127 5.91837 20.6363 5.77143C20.829 5.64082 20.9601 5.43673 21.0141 5.2C20.7365 5.33878 20.459 5.39592 20.1044 5.39592C19.2641 5.39592 18.7398 4.86531 18.7398 3.93469V3.74694H21.122C21.1297 3.68163 21.1297 3.60816 21.1297 3.54286C21.1297 2.53878 20.5361 1.88571 19.5801 1.88571C18.5086 1.88571 17.7145 2.78367 17.7145 4.01633C17.7145 5.29796 18.4931 6 19.7035 6ZM18.7552 3.49388C18.7861 2.97143 19.0405 2.38367 19.5262 2.38367C20.0196 2.38367 20.1506 2.8898 20.1583 3.39592L18.7552 3.49388Z" fill="currentColor"/>
	<path d="M22.9978 1.18367C23.2908 1.18367 23.5683 0.914286 23.5683 0.595918C23.5683 0.277551 23.283 0 22.9978 0C22.674 0 22.4273 0.277551 22.4273 0.595918C22.4273 0.906122 22.7126 1.18367 22.9978 1.18367ZM22.1344 5.93469H24C23.63 5.76327 23.5374 5.57551 23.5374 5.24898V1.78776L22.2423 2.22857C22.3579 2.48163 22.4736 2.72653 22.5969 2.97143V5.24898C22.5969 5.57551 22.4736 5.76327 22.1344 5.93469Z" fill="currentColor"/>
</svg>
