<svg width="84" height="25" viewBox="0 0 84 25" fill="none" xmlns="http://www.w3.org/2000/svg">
<path d="M35.4652 18.4851C37.3849 18.4851 38.5007 17.4879 38.5007 15.9257C38.5007 13.948 36.663 13.383 35.3339 12.9509C34.6119 12.7348 34.0541 12.5687 34.0541 12.2197C34.0541 11.638 34.6776 11.2391 35.6128 11.2391C36.6794 11.2391 37.549 11.6048 38.2382 12.1864C38.2546 12.0701 38.2546 11.9538 38.2546 11.8374C38.2217 10.7239 37.2701 10.109 35.6457 10.109C33.9228 10.109 32.6758 11.1727 32.6758 12.7847C32.6758 14.7458 34.5791 15.3607 35.9082 15.7928C36.6302 16.0254 37.188 16.2082 37.188 16.524C37.188 17.0724 36.4989 17.4381 35.5636 17.4381C34.5627 17.4381 33.6439 17.0891 32.7906 16.4077V16.6237C32.807 17.8868 33.8079 18.4851 35.4652 18.4851Z" fill="#26212E"/>
<path d="M45.4704 18.4851C46.3893 18.4851 46.98 18.3189 47.4558 18.0197C47.866 17.7538 48.145 17.3383 48.2598 16.8564C47.6691 17.1389 47.0784 17.2552 46.3237 17.2552C44.5352 17.2552 43.4194 16.175 43.4194 14.2804V13.8982H48.4895C48.506 13.7652 48.5059 13.6157 48.5059 13.4827C48.5059 11.4386 47.2425 10.109 45.2079 10.109C42.9272 10.109 41.2371 11.9371 41.2371 14.4466C41.2371 17.0558 42.8944 18.4851 45.4704 18.4851ZM43.4522 13.383C43.5179 12.3194 44.0593 11.1228 45.0931 11.1228C46.1432 11.1228 46.4221 12.1532 46.4385 13.1836L43.4522 13.383Z" fill="#26212E"/>
<path d="M55.4355 18.3521H59.4226C58.635 18.0031 58.4382 17.704 58.4382 17.0392V12.5853C58.4382 11.0729 57.6013 10.109 56.141 10.109C54.8119 10.109 53.9587 10.7406 53.5813 12.2695V9.9096L50.8248 10.807C51.0709 11.3222 51.317 11.8208 51.5795 12.3194V16.9561C51.5795 17.6209 51.317 18.0031 50.595 18.3521H54.5658C53.7782 18.0031 53.5813 17.6209 53.5813 16.9561V12.3194C53.9915 11.8374 54.451 11.6048 55.0745 11.6048C55.8949 11.6048 56.4199 12.0701 56.4199 13.0008V17.0392C56.4199 17.704 56.1574 18.0031 55.4355 18.3521Z" fill="#26212E"/>
<path d="M64.607 18.4851C66.5267 18.4851 67.6425 17.4879 67.6425 15.9257C67.6425 13.948 65.8048 13.383 64.4757 12.9509C63.7538 12.7348 63.1959 12.5687 63.1959 12.2197C63.1959 11.638 63.8194 11.2391 64.7547 11.2391C65.8212 11.2391 66.6908 11.6048 67.38 12.1864C67.3964 12.0701 67.3964 11.9538 67.3964 11.8374C67.3636 10.7239 66.4119 10.109 64.7875 10.109C63.0646 10.109 61.8176 11.1727 61.8176 12.7847C61.8176 14.7458 63.7209 15.3607 65.05 15.7928C65.772 16.0254 66.3298 16.2082 66.3298 16.524C66.3298 17.0724 65.6407 17.4381 64.7054 17.4381C63.7045 17.4381 62.7857 17.0891 61.9324 16.4077V16.6237C61.9489 17.8868 62.9498 18.4851 64.607 18.4851Z" fill="#26212E"/>
<path d="M74.6123 18.4851C75.5311 18.4851 76.1218 18.3189 76.5976 18.0197C77.0078 17.7538 77.2868 17.3383 77.4016 16.8564C76.8109 17.1389 76.2203 17.2552 75.4655 17.2552C73.677 17.2552 72.5612 16.175 72.5612 14.2804V13.8982H77.6314C77.6478 13.7652 77.6478 13.6157 77.6478 13.4827C77.6478 11.4386 76.3843 10.109 74.3497 10.109C72.069 10.109 70.3789 11.9371 70.3789 14.4466C70.3789 17.0558 72.0362 18.4851 74.6123 18.4851ZM72.594 13.383C72.6597 12.3194 73.2011 11.1228 74.2349 11.1228C75.285 11.1228 75.5639 12.1532 75.5803 13.1836L72.594 13.383Z" fill="#26212E"/>
<path d="M81.6238 8.67979C82.2473 8.67979 82.838 8.13136 82.838 7.48321C82.838 6.83507 82.2309 6.27002 81.6238 6.27002C80.9347 6.27002 80.4096 6.83507 80.4096 7.48321C80.4096 8.11474 81.0167 8.67979 81.6238 8.67979ZM79.7861 18.3521H83.7569C82.9693 18.0031 82.7724 17.6209 82.7724 16.9561V9.9096L80.0158 10.807C80.2619 11.3222 80.508 11.8208 80.7706 12.3194V16.9561C80.7706 17.6209 80.508 18.0031 79.7861 18.3521Z" fill="#26212E"/>
<path fill-rule="evenodd" clip-rule="evenodd" d="M8.41884 19.3918C8.9257 18.9727 8.72054 18.528 9.43235 18.3645C9.40055 18.719 9.67933 19.0785 9.85748 19.3918C9.67319 18.7219 9.8535 18.4147 9.99154 18.0786C10.5795 16.6466 8.8728 15.7197 7.70925 15.4932C8.10673 15.1929 8.38425 14.8962 8.88328 14.8449C8.25958 14.8355 7.64493 14.9801 7.09387 15.2648C5.21453 16.2339 3.72479 14.3097 4.71004 12.5659C5.23544 11.6336 5.83384 11.6184 6.37153 10.9875C6.50053 11.3113 6.54461 11.6658 6.49764 12.0159C6.66567 11.6307 6.69313 11.2025 6.57966 10.8043C6.40441 10.1918 5.90249 10.1878 5.80926 9.30686C5.78975 9.12257 5.63112 9.4102 5.3648 9.16665C5.30121 9.10812 5.17329 9.00369 5.08945 9.05102C4.94491 9.13088 4.78411 9.06548 4.69703 9.11137C4.55574 9.18725 4.51274 9.02934 4.35808 9.141C4.08671 9.33649 4.0578 9.11751 3.7969 9.15112C3.47024 9.19303 3.25596 9.62738 3.0695 9.41237C2.89858 9.21688 2.72224 9.55077 2.5983 9.55077C2.51201 9.55077 2.07041 10.1285 1.87632 9.601C1.7307 9.20676 1.40404 9.9768 1.22987 9.71555C1.17458 9.63244 1.02281 9.91212 0.925609 9.63569C0.903205 9.57209 0.927777 9.49332 0.744211 9.58546C0.380692 9.76686 0.509694 9.47597 0.394062 9.32312C0.252774 9.13558 0.202546 9.13558 0.27843 8.83132C0.338775 8.58958 0.246631 8.22895 0.616292 8.16752C0.710605 8.15198 0.797691 8.15812 0.927777 7.89723C1.08966 7.57057 1.31912 7.72703 1.27793 7.57852C1.21758 7.36135 1.51967 7.06829 1.65987 6.93026C1.84633 6.7438 2.09024 6.47134 2.17697 6.209C2.1925 6.16383 2.27634 6.03374 2.35005 5.95099C2.48737 5.7985 2.5282 5.94594 2.73417 5.87005C2.88268 5.81477 2.76705 5.96545 2.9134 5.74286C2.96037 5.67203 3.08974 5.73888 3.23392 5.67131C3.67134 5.4663 3.71206 5.46973 3.82075 4.99342C3.84135 4.90344 3.86267 4.8337 3.95481 4.84273C4.14019 4.86116 4.1821 4.74842 4.29593 4.75059C4.39747 4.75348 4.43432 4.69638 4.48853 4.62773C4.7917 4.23241 4.95756 4.52727 5.09198 4.49656C5.19533 4.47307 5.12993 4.23639 5.40347 4.3101C5.79373 4.41453 5.66582 4.21687 5.9166 4.28155C6.21074 4.35744 6.23097 4.62773 6.43297 4.69241C6.67579 4.76938 6.79034 5.05412 6.95223 5.05087C7.52172 5.04147 7.3497 5.46968 7.70925 5.63879C7.43896 5.34573 7.72984 4.87165 7.11519 4.81022C6.97787 4.79685 6.92981 4.57859 6.72601 4.47633C6.47921 4.35347 6.50486 4.09222 6.06004 3.98453C6.17387 3.90865 6.20964 3.99285 6.27938 3.85047C6.37767 3.64956 6.43296 3.76664 6.4709 3.64342C6.50559 3.52887 6.48029 3.46418 6.7495 3.36083C7.02918 3.25315 7.29839 3.00526 7.54736 3.01863C7.76742 3.02984 7.85993 2.87229 7.84656 2.67354C7.83319 2.46757 7.79127 2.185 8.22237 2.27208C8.48145 2.32339 8.47639 2.27606 8.47531 2.08888C8.47314 1.90134 8.54288 1.78787 8.76945 1.79582C8.93531 1.80088 9.09828 1.79185 9.16079 1.58263C9.20994 1.41677 9.51094 1.37485 9.67174 1.31234C10.2076 1.10456 10.2821 1.4034 10.4277 1.14033C10.5466 0.926413 10.7576 0.560726 10.9961 0.820898C11.0442 0.873294 11.0882 0.911959 11.249 0.718275C11.3842 0.557474 11.7058 0.353672 11.8207 0.631189C11.8659 0.740678 11.9663 0.852336 12.053 0.711048C12.0704 0.683224 12.0921 0.652509 12.143 0.640223C12.229 0.62071 12.276 0.596138 12.3194 0.574818C12.6883 0.389446 12.8491 0.401732 12.68 0.803192C12.4386 1.37959 14.0188 0.451888 13.5794 1.07782C13.4175 1.30728 14.4878 1.43736 14.6436 1.54179C14.7296 1.59925 14.7256 1.64839 14.8875 1.68127C15.3464 1.77125 15.3392 1.72825 15.367 2.12393C15.3793 2.30316 15.5495 2.2027 15.5495 2.43108C15.5495 3.40672 16.3462 2.91559 16.4763 3.15848C16.4977 3.19931 16.5305 3.23544 16.6104 3.23544C16.8615 3.23544 16.8756 3.18233 16.9895 3.39733C17.0357 3.48441 17.0733 3.5285 17.2045 3.57258C17.4061 3.64016 17.3938 3.66473 17.3183 3.82445C17.2272 4.01379 17.3696 4.0109 17.5528 4.02825C17.7208 4.04559 17.8018 4.1428 17.9174 4.28011C18.1049 4.50234 18.3969 4.56594 18.6448 4.69494C18.7861 4.76757 18.647 4.94897 18.8855 5.13832C19.0618 5.2778 19.1507 5.25829 18.914 5.4386C17.9148 6.20196 19.285 5.9945 19.6678 6.70441C19.7538 6.86304 19.8676 7.0607 20.0324 7.24319C20.4133 7.66199 20.2004 7.77798 20.4064 8.03996C20.5253 8.19065 20.432 8.15451 20.6265 8.29002C21.0854 8.60945 20.4483 8.82156 20.0877 8.67702C19.9229 8.61162 19.8069 8.52128 19.8387 8.63005C19.8644 8.7193 19.8203 8.78182 19.7505 8.84939C19.5395 9.05427 19.9576 8.97442 20.057 8.95888C20.3623 8.91263 21.1786 8.81976 21.1725 9.12907C21.1641 9.53053 21.403 9.62087 21.5956 9.64725C21.9082 9.69134 21.9971 9.7506 22.1691 10.0581C22.3248 10.3356 22.4159 10.1871 22.6565 10.4328C22.8213 10.6019 23.0244 10.9029 22.6905 10.947C22.6106 10.9571 22.5235 10.9481 22.4867 10.9777C22.3873 11.0547 22.3147 11.0782 22.2511 11.0984C21.7513 11.2632 22.4867 11.3463 22.667 11.3044C22.8249 11.2686 23.0204 11.2144 23.1729 11.2563C23.2701 11.2831 23.2795 11.4009 23.5866 11.4511C23.6889 11.4685 23.647 11.6303 23.5968 11.7431C23.4204 12.1333 23.9205 11.9263 23.8681 12.2215C23.8385 12.3924 24.0524 12.6681 23.7536 12.6743C23.6575 12.6765 23.557 12.6475 23.5599 12.7357C23.566 12.9283 23.2802 12.6826 23.024 12.9467C22.9286 13.045 22.7024 13.1137 22.5629 12.9305C22.5098 12.8607 22.4451 12.8044 22.1962 12.8886C21.9515 12.9717 21.7853 13.2593 21.678 12.8149C21.6494 12.6981 21.5931 12.696 21.4373 12.6385C21.2263 12.5597 21.2447 12.1673 20.9354 12.4203C20.8321 12.5034 20.7143 12.5287 20.573 12.49C20.3301 12.4235 20.0609 12.5117 20.0382 12.3158C20.0013 11.9892 19.7144 11.7586 19.4 11.7749C19.1511 11.7893 18.931 11.8363 18.7998 11.5259C18.897 11.8815 19.1493 11.905 19.4452 11.905C19.6898 11.905 19.8344 12.0423 19.8774 12.3158C19.9533 12.7982 20.2225 12.4951 20.5636 12.7216C20.7316 12.8322 20.8523 13.0114 20.9199 13.2196C20.9896 13.4346 21.5457 13.1766 21.3961 13.6908C21.3325 13.9119 21.2148 13.9961 20.9864 14.1754C20.3086 14.7109 20.1406 14.1821 19.9406 14.6104C19.8373 14.8326 19.834 14.6679 19.6096 14.7763C19.2378 14.9544 19 14.5417 18.7276 14.6932C18.4193 14.8652 18.4439 14.5468 18.1324 14.7607C17.8744 14.9378 17.6121 14.6267 17.4881 15.1109C17.3826 15.5246 16.9454 15.534 16.7455 15.3118C16.4268 14.9584 16.5222 15.7288 16.1331 15.4112C15.926 15.2442 15.7735 15.4881 15.4703 15.4932C14.9121 15.5015 14.6447 14.979 14.3722 15.2966C14.0473 15.6735 13.8117 15.2392 13.8067 14.855C13.8016 14.4626 12.4924 14.5938 11.8041 14.3889C11.4232 14.2762 10.2268 14.4135 10.616 13.7507C9.98792 14.4626 11.3882 14.4185 11.7694 14.5804C11.9988 14.6765 12.1842 14.7546 12.4064 14.7882C12.6265 15.328 12.7689 15.9127 12.7906 16.6257C12.8632 16.2343 12.8798 15.835 12.8386 15.4415C12.7656 14.7426 13.2469 15.7887 13.3048 15.9384C13.6158 16.7599 13.2676 18.268 12.4802 18.7208C12.2785 18.0674 11.9569 17.4546 11.5287 16.9158C11.962 17.6299 12.5716 19.0893 12.083 19.9241C11.6765 19.7571 11.3444 19.4438 11.154 19.0442C11.283 19.6516 11.8507 20.3244 12.5358 20.1022C13.731 19.7138 13.7258 20.5267 15.3107 20.6618C16.4627 20.8645 18.1065 20.6618 18.8918 20.7294C19.3201 20.7663 21.1222 21.0887 21.1143 21.5762C21.0825 23.5929 20.3739 23.6995 18.5126 23.8899C17.431 24.0005 16.5945 24.0452 15.4306 24.0919C12.8278 24.1963 9.69668 24.1985 7.19938 24.089C5.97524 24.0353 5.38612 24.0254 4.08634 23.8411C2.78657 23.6568 2.07362 23.1784 2.09422 21.6748C2.10292 21.1203 3.62522 20.5913 4.12212 20.5308C4.71004 20.4591 5.64704 20.5401 6.49981 20.319C7.38981 20.0874 7.76229 19.9347 8.41884 19.3918ZM17.4589 8.35398C17.1763 8.27701 17.3729 8.10212 16.8861 8.32832C16.5992 8.46166 16.5584 8.09164 16.2686 8.1574C15.9777 8.22281 15.8588 7.92903 15.4255 7.85423C14.8878 7.761 15.2759 7.6114 14.4239 7.79569C14.2598 7.83038 14.1218 7.63091 13.6105 7.70138C13.0113 7.78449 13.2213 7.85387 12.8585 7.49143C12.3985 7.03252 12.0339 7.34075 11.5616 7.15538C11.9262 7.45855 12.1835 7.18934 12.6135 7.55901C12.2048 7.80978 11.7286 9.02175 10.986 9.09764C11.7943 9.29313 12.1853 9.74301 12.9272 9.85141C13.7803 9.97427 14.4184 10.0653 14.8745 10.8195C15.3836 11.6636 15.617 11.1768 16.3524 11.1259C16.8175 11.0941 16.8287 10.7888 16.9056 10.4653C17.0122 10.0187 17.1195 9.99812 17.431 9.93886C17.7906 9.8702 17.7057 9.76975 17.6113 9.65412C17.3573 9.34083 17.6431 9.27723 17.8581 9.20966C18.2339 9.09186 17.9297 9.07234 17.9297 8.9054C17.4596 8.74243 17.822 8.51116 18.0844 8.40854C18.3702 8.59897 18.4941 8.56717 18.6202 8.54188C18.8045 8.50285 18.9274 8.59608 19.0831 8.48948C18.8537 8.51622 18.8067 8.423 18.613 8.45263C18.5259 8.466 18.4226 8.47214 18.2423 8.35614C17.9391 8.15957 17.7855 8.44215 17.4589 8.35398ZM13.6043 11.3442L11.7596 10.3504C9.53588 9.15292 8.52301 10.921 7.80898 12.86L6.51426 14.1916C7.44221 13.5759 8.19924 12.8897 9.17525 12.8958C9.33125 12.8966 11.7384 13.7802 11.3509 12.7288C11.2812 12.5395 11.5016 12.6335 11.562 12.3621C11.6295 12.0517 11.6541 12.1048 11.8919 12.3028C12.0415 12.4278 12.2482 12.5088 12.1849 12.2146C12.1571 12.0835 12.1184 11.9657 12.6583 12.2074C12.9134 12.3212 12.8191 12.0907 13.1714 12.0445C13.6611 11.9809 13.5566 11.4779 13.7872 11.4074C13.9151 11.3673 14.0441 11.5118 14.2851 11.2672C14.3689 11.1823 14.4705 11.1042 14.6786 11.1617C14.4369 11.0294 14.3068 11.1371 14.1839 11.217C13.9364 11.3788 13.8399 11.1505 13.6043 11.3442ZM9.83399 7.83688C10.1043 7.80003 10.3749 7.77148 10.6485 7.75305C10.7016 7.73462 10.7468 7.69668 10.7735 7.64537C10.7992 7.59514 10.8031 7.53588 10.7858 7.48132C10.802 7.32268 10.8942 7.18103 11.0337 7.10334L11.0315 7.09828C10.595 7.10045 10.2427 7.27968 9.79713 7.48348C9.70788 7.52432 9.75521 7.6862 9.5973 7.87157C9.58791 8.07321 9.45096 8.24666 9.25619 8.29977C9.19693 8.30592 9.14164 8.33663 9.10442 8.38361C9.06648 8.43167 9.0513 8.49201 9.06034 8.55164C8.94579 8.68787 8.75608 8.73412 8.59239 8.66438C8.25453 8.52309 8.0023 8.54441 7.83536 8.72978C8.0453 8.60475 8.30873 8.61523 8.50819 8.75544C8.7344 8.87541 9.01517 8.81181 9.16802 8.60584C9.18934 8.5043 9.27643 8.43058 9.38013 8.42553C9.61971 8.32868 9.77039 8.13175 9.83399 7.83688Z" fill="#43AF99"/>
</svg>
