<svg viewBox="0 0 24 24" fill="none" xmlns="http://www.w3.org/2000/svg">
	<path d="M11.9999 24C15.1825 23.9999 18.2348 22.7357 20.4852 20.4852C22.7357 18.2348 23.9999 15.1825 23.9999 11.9999C23.9999 8.81727 22.7356 5.76502 20.4852 3.51458C18.2347 1.26415 15.1825 -0.000131189 11.9999 -0.00012207C8.81724 -0.000112951 5.76499 1.26418 3.51455 3.51463C1.26412 5.76508 -0.000161707 8.81734 -0.000152588 12C-0.000143469 15.1826 1.26415 18.2348 3.5146 20.4852C5.76505 22.7357 8.81731 24 11.9999 24V24ZM11.8992 19.2766C9.05115 19.2766 7.38263 18.2055 7.32508 16.266C7.32508 16.0633 7.32501 15.8607 7.35382 15.6581C8.562 16.6712 10.0867 17.3081 11.9567 17.3081C13.5964 17.3081 14.6896 16.6134 14.6896 15.6002C14.6896 14.9923 13.7116 14.7027 12.4458 14.3264C10.1155 13.5738 6.89349 12.5896 6.89349 9.14484C6.89349 6.4237 8.84973 4.68676 12.2156 4.68676C15.1212 4.68676 16.876 5.72907 16.9049 7.9291V8.30526C15.4089 7.11839 13.7979 6.51062 12.043 6.51062C10.4033 6.51062 9.19494 7.14734 9.19494 8.1026C9.19494 8.6526 10.1731 8.97121 11.4389 9.37645C13.7691 10.1291 17.1064 11.2001 17.1064 14.616C17.1064 17.4239 14.9199 19.2766 11.8992 19.2766V19.2766Z" fill="currentColor"/>
</svg>
