<svg viewBox="0 0 24 24" fill="none" xmlns="http://www.w3.org/2000/svg">
	<path d="M12 0C5.373 0 0 5.373 0 12C0 18.627 5.373 24 12 24C18.627 24 24 18.627 24 12C24 5.373 18.627 0 12 0ZM14.737 15.722L15.318 17.443L15.304 17.505C14.866 17.926 13.814 18.238 12.954 18.253L12.856 18.254C10.028 18.254 9.543 16.094 9.543 14.819V10.713L9.48397 10.654H7.86203L7.803 10.595L7.78897 8.80898L7.82603 8.75497C9.288 8.18602 10.104 7.241 10.318 5.492C10.331 5.395 10.412 5.392 10.412 5.392H12.423L12.482 5.451V8.26102L12.541 8.31997H14.76L14.818 8.379V10.596L14.76 10.655H12.531L12.474 10.714V14.625C12.488 15.464 12.891 15.89 13.679 15.89C13.995 15.89 14.329 15.816 14.661 15.689L14.737 15.722Z" fill="currentColor"/>
</svg>
