<svg viewBox="0 0 29 20" fill="none" xmlns="http://www.w3.org/2000/svg">
	<path fill-rule="evenodd" clip-rule="evenodd" d="M3.90142 2.26318H24.778C25.0918 2.26318 25.4025 2.32588 25.6924 2.44769C25.9823 2.5695 26.2456 2.74804 26.4675 2.97311C26.6893 3.19818 26.8652 3.46537 26.9852 3.75941C27.1052 4.05345 27.1669 4.36859 27.1667 4.68681V12.7646C27.1667 13.0827 27.1049 13.3976 26.9849 13.6915C26.8648 13.9854 26.6889 14.2524 26.467 14.4772C26.2452 14.7021 25.9819 14.8805 25.6921 15.0021C25.4023 15.1237 25.0917 15.1863 24.778 15.1861H17.2908L18.3155 17.7408L13.7925 15.1861H3.89839C3.26556 15.1853 2.65891 14.9299 2.21162 14.4759C1.76433 14.0218 1.51296 13.4064 1.5127 12.7646V4.68681C1.5127 4.0442 1.76433 3.4279 2.21228 2.97341C2.66022 2.51892 3.2678 2.26346 3.90142 2.26318Z" fill="#7D57A4"/>
	<path d="M2.80643 4.45705C2.88544 4.35691 2.98516 4.27557 3.09855 4.21878C3.21194 4.16199 3.33624 4.13113 3.46267 4.12837C3.99507 4.09083 4.30064 4.34545 4.37939 4.89222C4.70785 7.11004 5.05953 8.9927 5.43443 10.5402L7.73229 6.10864C7.94026 5.70863 8.2031 5.49702 8.52079 5.47381C8.98117 5.44105 9.2689 5.73832 9.384 6.36565C9.60026 7.60617 9.93257 8.82297 10.3764 9.99956C10.6524 7.30049 11.1131 5.34923 11.7586 4.14578C11.8209 4.0108 11.9183 3.89562 12.0403 3.81262C12.1624 3.72962 12.3044 3.68196 12.4512 3.67478C12.6901 3.65486 12.9273 3.73015 13.1125 3.88468C13.2069 3.95703 13.2846 4.04957 13.3399 4.15574C13.3952 4.2619 13.4268 4.3791 13.4325 4.49903C13.4494 4.67605 13.4143 4.85419 13.3315 5.011C12.9223 5.78099 12.5858 7.06124 12.3219 8.85174C12.0615 10.5801 11.9652 11.932 12.0332 12.9075C12.0571 13.1466 12.0148 13.3877 11.911 13.6038C11.8607 13.7128 11.7822 13.8061 11.684 13.8737C11.5857 13.9413 11.4713 13.9807 11.3527 13.9877C11.0761 14.0082 10.8005 13.8761 10.5228 13.5935C9.54823 12.5799 8.7742 11.0716 8.20074 9.06881C7.52767 10.434 7.02287 11.4552 6.68634 12.1324C6.07048 13.3338 5.54279 13.9499 5.10328 13.9806C4.81789 14.0011 4.57492 13.758 4.37434 13.2515C3.83589 11.8611 3.25839 9.17086 2.64186 5.18097C2.61749 5.05535 2.61956 4.92594 2.64792 4.80119C2.67628 4.67644 2.73029 4.55917 2.80643 4.45705Z" fill="white"/>
	<path d="M25.3411 6.12877C25.1679 5.81169 24.9279 5.53721 24.6382 5.32485C24.3486 5.11249 24.0164 4.96745 23.6652 4.90006C23.4779 4.85992 23.2871 4.83933 23.0957 4.83862C22.0915 4.83862 21.2711 5.36867 20.6343 6.42878C20.0921 7.33027 19.8099 8.36783 19.8196 9.42376C19.8196 10.2429 19.9878 10.945 20.3244 11.53C20.4974 11.8474 20.7375 12.1221 21.0274 12.3345C21.3173 12.5469 21.6498 12.6918 22.0013 12.7587C22.1881 12.7997 22.3786 12.8206 22.5697 12.8211C23.5841 12.8211 24.4042 12.2911 25.0301 11.231C25.5723 10.323 25.8548 9.28003 25.8459 8.2186C25.8459 7.39946 25.6776 6.70285 25.3411 6.12877ZM24.0185 9.0787C23.8752 9.77496 23.6093 10.2996 23.2209 10.6525C22.9133 10.933 22.6313 11.0474 22.3749 10.9955C22.1184 10.9436 21.9128 10.7142 21.758 10.3074C21.6394 9.99881 21.5768 9.67099 21.5733 9.3398C21.5723 9.07773 21.598 8.81627 21.65 8.55957C21.7499 8.10534 21.938 7.67583 22.2033 7.29604C22.5519 6.77657 22.916 6.55848 23.2956 6.64175C23.5521 6.69432 23.7574 6.92299 23.9115 7.32778C24.0297 7.63611 24.092 7.96357 24.0953 8.29437C24.0966 8.5578 24.0709 8.82066 24.0185 9.0787Z" fill="white"/>
	<path d="M18.7718 6.12877C18.5986 5.81169 18.3586 5.53721 18.0689 5.32485C17.7793 5.11249 17.447 4.96745 17.0958 4.90006C16.9086 4.85992 16.7178 4.83933 16.5264 4.83862C15.5215 4.83862 14.7014 5.36867 14.066 6.42878C13.523 7.32999 13.2404 8.36767 13.2502 9.42376C13.2502 10.2429 13.4185 10.945 13.7551 11.53C13.9278 11.8476 14.1678 12.1225 14.4577 12.335C14.7477 12.5474 15.0804 12.6921 15.432 12.7587C15.6188 12.7997 15.8093 12.8206 16.0004 12.8211C17.0154 12.8211 17.8359 12.2911 18.4618 11.231C19.0059 10.3235 19.2907 9.28063 19.2847 8.2186C19.2847 7.39946 19.1164 6.70285 18.7799 6.12877H18.7718ZM17.4492 9.0787C17.3058 9.77633 17.0393 10.3016 16.6496 10.6545C16.3413 10.9351 16.0593 11.0494 15.8035 10.9975C15.5478 10.9457 15.3428 10.7156 15.1887 10.3074C15.0701 9.99881 15.0075 9.67099 15.0039 9.3398C15.0029 9.07773 15.0287 8.81627 15.0807 8.55957C15.1815 8.10563 15.3695 7.67628 15.6339 7.29604C15.9812 6.77794 16.3454 6.56052 16.7263 6.6438C16.9828 6.69636 17.1877 6.92504 17.3412 7.32983C17.4597 7.6381 17.5223 7.96556 17.5259 8.29642C17.527 8.55848 17.5012 8.81995 17.4492 9.07665V9.0787Z" fill="white"/>
</svg>
